# xmcd CD database file
#
# Track frame offsets:
#	150
#	19236
#	38767
#	59468
#	81042
#	107419
#	119997
#	138892
#	156385
#	176985
#	196585
#	215487
#	218860
#
# Disc length: 3064 seconds
#
# Revision: 2
# Processed by: cddbd v1.5.2PL0 Copyright (c) Steve Scherf et al.
# Submitted via: CDex 1.90
#
DISCID=bc0bf60d
DTITLE=Mesh - We Collide [CD) (1 of 2)
DYEAR=2006
DGENRE=Industrial
TTITLE0=Open Up The Ground
TTITLE1=What Are You Scared Of?
TTITLE2=Step By Step
TTITLE3=No Place Like Home
TTITLE4=Petrified
TTITLE5=Rest in Pieces
TTITLE6=This is What You Wanted
TTITLE7=Room With a View
TTITLE8=My Hands Are Tied
TTITLE9=Crash
TTITLE10=Can You Mend Hearts?
TTITLE11=(44 seconds of silence)
TTITLE12=The World's A Big Place (Hidden Track)
EXTD=YEAR: 2006
EXTT0=
EXTT1=
EXTT2=
EXTT3=
EXTT4=
EXTT5=
EXTT6=
EXTT7=
EXTT8=
EXTT9=
EXTT10=
EXTT11=
EXTT12=
PLAYORDER=
